<?xml version="1.0" standalone="no"?>
<!DOCTYPE svg PUBLIC "-//W3C//DTD SVG 20010904//EN"
 "http://www.w3.org/TR/2001/REC-SVG-20010904/DTD/svg10.dtd">
<svg version="1.0" xmlns="http://www.w3.org/2000/svg"
 width="2000.000000pt" height="2000.000000pt" viewBox="0 0 2000.000000 2000.000000"
 preserveAspectRatio="xMidYMid meet">

<g transform="translate(0.000000,2000.000000) scale(0.100000,-0.100000)"
fill="#000000" stroke="none">
<path d="M10002 19980 c-107 -66 -61 -240 63 -240 87 0 135 47 135 133 0 100
-111 160 -198 107z"/>
<path d="M11756 19703 c-10 -33 -376 -1666 -373 -1668 13 -8 194 -42 198 -37
8 8 235 1029 280 1260 18 89 33 161 35 160 1 -2 38 -118 83 -258 79 -252 440
-1352 445 -1358 8 -7 246 -55 251 -50 3 3 90 380 193 839 161 712 186 835 172
840 -27 11 -180 42 -185 37 -6 -6 -247 -1089 -281 -1263 -15 -77 -30 -143 -33
-147 -4 -5 -51 130 -105 300 -196 620 -419 1297 -428 1303 -5 3 -55 16 -111
28 -56 12 -110 25 -119 27 -10 3 -19 -2 -22 -13z"/>
<path d="M9980 19453 c-4 -86 2 -961 7 -1100 l6 -193 100 0 100 0 -6 392 c-4
215 -7 508 -7 650 l0 258 -100 0 c-55 0 -100 -3 -100 -7z"/>
<path d="M8873 19395 c-129 -36 -223 -111 -274 -218 -16 -34 -29 -57 -29 -52
-1 26 -29 198 -34 202 -3 3 -47 -1 -98 -8 -83 -13 -93 -16 -91 -34 7 -64 175
-1260 177 -1263 4 -4 185 24 191 30 2 2 -18 164 -46 359 -59 420 -62 506 -16
604 36 78 97 140 172 176 50 24 73 29 135 29 65 0 82 -4 127 -30 60 -35 98
-84 118 -155 7 -27 39 -237 71 -465 31 -228 61 -419 65 -424 7 -8 188 8 195
17 6 7 -128 923 -141 967 -24 77 -55 128 -114 184 -77 72 -126 90 -251 93 -70
2 -123 -2 -157 -12z"/>
<path d="M7382 19095 c-184 -41 -307 -160 -342 -331 l-12 -55 -54 50 c-64 59
-127 82 -219 82 -124 0 -264 -59 -340 -143 -42 -47 -85 -137 -85 -178 0 -34
-16 -30 -29 8 -8 20 -22 60 -33 89 l-19 51 -81 -29 c-45 -17 -87 -33 -94 -37
-7 -5 56 -191 205 -597 119 -324 219 -598 223 -607 7 -16 14 -15 90 13 46 16
87 34 91 38 5 5 -46 159 -113 342 -155 423 -153 417 -153 519 -1 199 116 330
293 330 72 0 133 -37 178 -106 18 -29 96 -227 183 -464 83 -228 153 -417 156
-420 7 -7 175 54 180 66 2 6 -51 162 -118 345 -144 395 -152 421 -151 519 0
174 101 300 258 326 91 14 186 -46 236 -148 14 -29 90 -228 168 -443 78 -214
145 -394 149 -398 10 -10 187 55 184 68 -7 40 -321 881 -345 922 -88 157 -238
226 -406 188z"/>
<path d="M13681 18604 c-201 -54 -372 -240 -462 -504 -27 -81 -37 -234 -19
-322 27 -140 117 -279 234 -363 133 -95 329 -165 462 -165 l61 0 32 73 c18 39
35 77 38 84 3 8 -18 11 -74 11 -98 0 -184 22 -290 73 -166 79 -264 208 -272
356 -3 77 4 149 18 172 7 10 95 -25 405 -163 218 -97 400 -176 405 -176 15 0
87 150 116 240 37 114 40 264 7 355 -59 160 -202 281 -390 329 -74 20 -199 20
-271 0z m304 -198 c72 -33 138 -95 166 -159 39 -87 25 -240 -30 -325 -6 -10
-79 18 -317 123 -170 76 -312 139 -316 142 -13 7 68 118 113 157 45 38 112 74
163 87 54 14 162 2 221 -25z"/>
<path d="M5353 18272 c-40 -26 -73 -50 -73 -55 0 -4 90 -151 200 -326 110
-176 208 -339 219 -363 83 -195 23 -380 -152 -468 -122 -61 -242 -30 -325 83
-21 28 -137 208 -257 399 -138 221 -221 345 -229 341 -23 -14 -151 -96 -155
-99 -2 -2 109 -182 245 -400 267 -426 309 -481 410 -530 53 -26 69 -29 160
-29 96 0 103 2 178 38 161 80 261 211 274 359 l7 73 54 -88 c51 -82 55 -87 75
-74 101 63 146 93 146 98 0 15 -680 1084 -692 1086 -7 1 -46 -19 -85 -45z"/>
<path d="M15170 18145 l-85 -134 -30 18 c-16 10 -56 34 -87 54 l-57 37 -19
-28 c-11 -15 -31 -46 -45 -69 l-26 -41 84 -53 c47 -30 85 -57 85 -60 0 -4 -93
-153 -206 -330 -259 -406 -269 -427 -269 -539 0 -68 4 -94 23 -131 40 -83 161
-184 252 -213 100 -31 92 -34 149 55 28 44 51 81 51 82 0 1 -21 3 -47 5 -67 4
-136 38 -181 86 -47 50 -57 95 -39 157 10 33 304 510 439 712 4 7 15 5 30 -5
12 -8 80 -52 150 -96 l128 -82 40 63 c22 34 40 67 40 72 0 6 -65 51 -145 100
-80 50 -145 93 -145 97 0 4 36 64 80 133 44 69 80 129 80 134 0 7 -152 111
-162 111 -2 0 -41 -61 -88 -135z"/>
<path d="M3665 17760 c-38 -32 -69 -64 -67 -70 1 -6 259 -321 573 -701 l570
-689 75 62 c42 34 73 67 70 74 -7 18 -1138 1384 -1145 1384 -3 -1 -37 -27 -76
-60z"/>
<path d="M15631 16813 c-227 -466 -292 -609 -285 -621 6 -8 46 -48 90 -88 l80
-73 380 232 c208 128 411 253 450 279 39 25 81 51 94 58 22 12 22 12 -3 -32
-29 -50 -116 -218 -332 -638 l-157 -305 88 -82 c49 -46 93 -83 97 -83 8 0
1157 647 1169 659 4 4 -24 38 -63 76 l-70 70 -62 -34 c-124 -69 -703 -405
-811 -471 -61 -37 -112 -67 -114 -65 -2 2 68 142 156 311 88 170 203 396 257
503 l97 194 -64 64 c-35 36 -71 69 -80 74 -13 7 -104 -43 -419 -232 -221 -132
-436 -263 -478 -289 -41 -27 -77 -47 -79 -46 -2 2 40 83 93 181 52 97 168 321
256 497 l161 321 -64 64 c-34 35 -70 68 -78 73 -12 6 -72 -109 -309 -597z"/>
<path d="M2688 16707 l-96 -103 427 -807 426 -807 78 80 78 80 -40 72 c-22 40
-73 136 -114 212 l-75 139 245 263 c135 145 250 264 255 264 6 0 105 -43 222
-95 l211 -96 72 78 c40 43 72 80 73 83 0 6 -1650 741 -1661 740 -3 0 -49 -46
-101 -103z m577 -322 c209 -97 390 -181 403 -186 13 -5 22 -14 20 -19 -7 -22
-402 -440 -409 -433 -3 4 -104 188 -224 408 -119 220 -221 404 -226 410 -19
19 -8 25 24 11 17 -8 203 -94 412 -191z"/>
<path d="M17355 15505 c-243 -53 -473 -246 -562 -471 -24 -62 -27 -82 -28
-194 0 -113 3 -131 27 -188 42 -101 88 -171 163 -246 115 -116 235 -166 397
-166 108 0 215 27 316 80 88 45 220 148 271 210 127 156 180 355 137 517 -44
166 -170 333 -307 407 -108 60 -280 81 -414 51z m323 -214 c64 -29 145 -113
187 -196 27 -53 30 -70 30 -150 0 -83 -3 -96 -35 -160 -62 -125 -203 -247
-362 -313 -54 -23 -78 -26 -168 -27 -122 0 -169 16 -244 85 -100 92 -147 213
-128 328 18 107 62 185 155 277 86 84 180 141 282 170 76 22 217 14 283 -14z"/>
<path d="M1264 14778 c-151 -144 -254 -366 -254 -544 0 -175 81 -314 228 -392
208 -110 352 -77 636 148 210 167 301 220 374 220 92 0 209 -84 238 -172 31
-95 5 -216 -77 -355 -46 -78 -160 -196 -230 -240 -32 -19 -57 -38 -55 -42 2
-3 45 -26 95 -50 83 -41 92 -44 116 -31 43 23 159 145 209 220 253 376 190
731 -153 861 -79 30 -205 30 -283 0 -74 -29 -175 -95 -318 -211 -127 -102
-223 -162 -288 -181 -92 -27 -217 34 -263 128 -34 68 -33 185 1 263 58 132
148 250 235 308 52 35 54 32 -63 91 l-83 42 -65 -63z"/>
<path d="M17989 13977 l-577 -292 44 -88 c24 -48 46 -87 49 -87 3 0 158 77
346 170 193 97 367 178 402 187 82 21 195 14 265 -17 65 -28 121 -89 146 -161
10 -30 20 -55 21 -57 3 -3 164 75 173 83 8 7 -62 130 -94 165 -51 56 -142 99
-228 107 l-69 6 96 49 97 48 -45 90 c-25 50 -46 90 -48 89 -1 0 -261 -132
-578 -292z"/>
<path d="M450 13009 c-96 -292 -175 -536 -175 -542 0 -5 37 -23 83 -38 l83
-28 9 23 c4 12 36 111 71 219 34 108 67 197 72 197 5 0 335 -108 735 -240 399
-132 726 -239 727 -237 6 7 64 191 62 193 -1 2 -330 111 -730 244 -441 146
-727 246 -727 253 0 7 31 107 70 222 38 115 69 209 67 210 -4 4 -162 55 -167
55 -3 0 -84 -239 -180 -531z"/>
<path d="M18640 13150 c-570 -201 -845 -302 -844 -312 3 -36 58 -168 70 -168
19 0 1667 579 1677 589 6 7 -46 179 -56 187 -1 0 -382 -133 -847 -296z"/>
<path d="M18271 12503 l-233 -358 38 -112 c30 -86 42 -110 50 -100 7 7 112
167 234 357 123 190 223 346 224 347 1 1 169 -60 374 -136 204 -76 372 -134
372 -129 0 4 -16 55 -36 112 l-36 104 -371 136 c-205 75 -374 136 -377 136 -4
0 -111 -161 -239 -357z"/>
<path d="M802 10410 c-212 -57 -386 -210 -471 -413 -126 -304 -14 -668 264
-851 303 -201 723 -131 941 157 97 128 144 267 144 428 0 300 -186 563 -469
662 -74 27 -103 31 -211 34 -100 2 -139 -1 -198 -17z"/>
<path d="M18865 10415 c-243 -65 -422 -231 -501 -460 -36 -105 -44 -267 -20
-377 53 -240 233 -436 471 -515 71 -24 96 -27 215 -27 122 0 143 2 215 28 222
77 374 229 451 451 26 72 28 93 28 215 0 119 -3 144 -27 215 -77 232 -262 406
-493 465 -91 24 -262 26 -339 5z"/>
<path d="M2221 7646 c-36 -12 -66 -26 -68 -32 -1 -5 28 -103 67 -219 38 -115
66 -213 62 -216 -4 -4 -331 -114 -727 -245 -396 -131 -722 -239 -724 -241 -4
-3 28 -111 50 -170 8 -21 25 -16 738 222 402 134 733 240 735 237 2 -4 34 -99
71 -212 37 -113 71 -209 75 -213 9 -11 151 33 156 48 2 5 -74 246 -169 535
-117 355 -178 526 -188 527 -8 1 -43 -8 -78 -21z"/>
<path d="M18078 7414 l-38 -106 203 -339 c111 -186 207 -339 213 -339 14 0
773 247 793 258 12 7 97 222 88 222 -1 0 -184 -61 -406 -135 -223 -74 -405
-134 -406 -132 -1 1 -93 154 -204 340 -111 185 -203 337 -204 337 -1 0 -19
-48 -39 -106z"/>
<path d="M17353 6870 c-17 -50 -31 -90 -29 -90 1 0 380 -133 841 -295 461
-162 841 -295 845 -295 4 0 20 40 37 89 l31 88 -842 297 c-464 163 -845 296
-847 296 -2 0 -18 -41 -36 -90z"/>
<path d="M17649 6258 c-29 -64 -33 -83 -33 -153 0 -83 18 -138 75 -223 l22
-34 -103 52 c-56 28 -103 50 -105 48 -1 -2 -21 -40 -44 -85 l-41 -82 458 -232
c251 -127 508 -259 570 -291 63 -33 117 -56 121 -52 5 5 27 44 50 86 l42 77
-330 166 c-181 91 -356 185 -388 209 -108 79 -182 223 -170 327 6 51 37 121
69 156 l20 22 -81 40 c-44 23 -84 41 -89 41 -5 0 -24 -33 -43 -72z"/>
<path d="M2455 6227 c-121 -41 -227 -123 -270 -211 -45 -93 -55 -181 -53 -474
2 -231 0 -273 -15 -310 -27 -69 -53 -99 -119 -131 -50 -25 -73 -31 -127 -31
-121 0 -209 73 -287 235 -61 129 -78 199 -79 332 l0 111 -90 -49 -90 -49 2
-87 c3 -201 128 -468 276 -592 152 -128 328 -145 509 -49 71 38 151 121 183
190 38 83 46 167 43 441 -3 282 3 330 54 391 100 121 280 118 396 -8 81 -88
147 -256 158 -402 l7 -83 88 45 c102 51 101 49 74 178 -51 240 -189 441 -364
527 -58 29 -77 33 -161 36 -60 2 -110 -2 -135 -10z"/>
<path d="M17225 5206 c-148 -39 -258 -123 -357 -275 -172 -263 -100 -599 176
-817 151 -120 294 -174 461 -174 171 1 269 42 390 164 203 205 249 449 130
691 -81 167 -270 323 -470 390 -96 33 -250 43 -330 21z m257 -207 c152 -50
316 -185 377 -310 48 -98 59 -179 36 -264 -31 -116 -116 -220 -214 -262 -265
-113 -658 121 -721 429 -34 169 92 365 273 424 55 18 167 11 249 -17z"/>
<path d="M3337 3955 c-456 -200 -830 -365 -832 -367 -2 -1 30 -37 70 -79 l73
-77 209 94 c114 51 215 93 223 93 13 0 490 -507 498 -528 2 -5 -47 -99 -108
-210 -60 -111 -110 -205 -110 -210 0 -12 137 -157 143 -151 3 3 197 362 431
799 l425 794 -95 103 c-53 57 -97 104 -98 103 0 0 -374 -164 -829 -364z m802
133 c-7 -13 -108 -195 -226 -405 -117 -211 -218 -394 -225 -408 -6 -14 -14
-25 -18 -25 -7 0 -413 438 -418 451 -2 5 1 9 6 9 9 0 690 305 822 369 36 17
66 31 68 31 1 0 -3 -10 -9 -22z"/>
<path d="M16352 4206 l-66 -64 133 -274 c73 -150 189 -382 256 -515 79 -156
117 -239 105 -233 -10 5 -139 83 -287 171 -147 89 -362 217 -477 285 l-209
124 -75 -73 -75 -74 197 -384 c108 -211 225 -439 261 -506 36 -68 63 -123 60
-123 -2 0 -51 30 -107 67 -135 87 -271 170 -563 343 -132 78 -255 151 -273
162 l-32 20 -70 -68 c-39 -37 -70 -70 -70 -74 0 -7 1124 -655 1152 -665 7 -2
52 33 100 78 l87 82 -197 375 c-109 206 -226 429 -261 494 -35 65 -60 117 -55
114 5 -3 104 -63 219 -133 116 -71 327 -199 471 -285 l260 -157 89 82 89 83
-138 288 c-76 159 -206 432 -289 607 -83 174 -155 317 -160 317 -5 0 -39 -29
-75 -64z"/>
<path d="M4495 2860 c-313 -380 -571 -693 -572 -698 -3 -10 139 -122 148 -116
7 4 1130 1359 1140 1375 3 5 -137 130 -144 129 -1 0 -258 -311 -572 -690z"/>
<path d="M14300 2870 c-41 -27 -74 -52 -74 -55 1 -4 38 -65 84 -136 45 -72 80
-133 76 -136 -3 -3 -42 -29 -86 -58 l-81 -51 40 -62 c23 -34 44 -62 47 -62 4
0 43 23 87 51 66 43 81 49 92 38 7 -8 104 -158 215 -334 112 -176 220 -341
242 -367 81 -97 196 -143 300 -120 93 21 175 67 245 137 62 62 64 66 50 88 -8
12 -29 46 -46 75 -18 28 -36 52 -39 52 -4 0 -19 -21 -34 -45 -29 -48 -98 -98
-160 -117 -52 -15 -110 3 -158 50 -21 20 -132 186 -248 369 l-210 332 144 92
c80 51 147 96 150 100 3 6 -51 102 -72 128 -2 2 -71 -40 -154 -92 l-151 -96
-62 97 c-35 53 -73 114 -86 135 -12 20 -26 37 -29 36 -4 0 -41 -22 -82 -49z"/>
<path d="M5015 2372 c-164 -262 -257 -419 -272 -462 -56 -163 -8 -320 132
-427 159 -121 318 -148 460 -78 27 13 51 23 53 21 1 -2 -22 -43 -53 -92 -43
-69 -52 -91 -43 -99 19 -17 149 -97 152 -93 33 47 676 1079 676 1086 0 4 -34
30 -76 57 -74 46 -77 48 -91 29 -8 -10 -100 -156 -206 -324 -210 -334 -264
-401 -364 -448 -82 -38 -193 -39 -274 -1 -71 34 -137 92 -160 144 -27 58 -25
147 5 210 13 28 122 208 243 400 121 193 223 355 226 362 5 7 -19 29 -65 58
-39 26 -77 49 -82 51 -6 2 -123 -175 -261 -394z"/>
<path d="M13584 2127 c-192 -64 -318 -188 -375 -367 -29 -89 -29 -236 0 -344
44 -167 150 -344 253 -424 223 -172 493 -173 776 -3 78 46 182 136 182 157 0
8 -14 48 -32 89 l-32 75 -44 -50 c-115 -131 -337 -229 -492 -217 -100 8 -172
40 -243 107 -34 32 -70 72 -80 89 l-18 31 83 38 c46 21 228 103 404 181 l321
143 -13 47 c-39 133 -149 304 -238 371 -96 72 -157 94 -276 97 -89 3 -116 0
-176 -20z m285 -183 c29 -15 69 -47 88 -69 38 -43 101 -161 91 -170 -3 -3
-146 -68 -319 -145 -230 -103 -315 -137 -321 -127 -17 28 -30 126 -26 207 5
95 34 168 91 228 104 109 276 142 396 76z"/>
<path d="M12478 2107 c-49 -11 -88 -24 -88 -29 0 -26 275 -1223 311 -1352 10
-38 17 -71 15 -73 -2 -2 -97 97 -212 219 -611 654 -959 1018 -974 1018 -19 0
-230 -46 -235 -52 -2 -2 344 -1551 369 -1654 l6 -21 95 21 c52 11 95 25 95 29
0 20 -216 969 -271 1187 -32 129 -57 236 -55 237 1 2 83 -84 181 -190 98 -105
341 -363 539 -572 199 -208 382 -402 407 -429 l46 -50 127 29 c103 23 125 31
122 44 -3 9 -84 369 -181 801 -195 870 -193 860 -203 859 -4 -1 -46 -10 -94
-22z"/>
<path d="M6290 1479 c-118 -324 -216 -596 -218 -603 -2 -8 29 -25 83 -46 48
-17 88 -30 90 -28 2 2 60 157 129 345 69 188 139 369 156 403 93 184 288 265
445 185 40 -20 69 -45 90 -73 28 -41 30 -50 30 -130 l0 -87 -153 -419 c-85
-230 -150 -422 -145 -426 4 -4 45 -21 89 -37 l82 -30 122 336 c151 416 167
449 244 527 73 72 148 106 239 106 80 0 177 -47 215 -105 24 -37 27 -49 27
-131 l0 -91 -153 -418 c-85 -230 -152 -420 -150 -421 1 -2 43 -17 91 -34 64
-23 89 -29 92 -19 3 6 72 198 155 426 177 486 184 510 177 609 -10 139 -80
231 -225 300 -74 36 -81 37 -187 37 -102 0 -114 -2 -168 -29 -31 -16 -75 -44
-96 -62 l-38 -33 -6 60 c-7 77 -55 178 -104 218 -96 79 -241 128 -347 117 -70
-7 -148 -40 -199 -86 -20 -17 -37 -30 -37 -27 0 4 15 49 34 101 l35 95 -47 17
c-26 10 -62 23 -81 31 -18 7 -39 13 -45 13 -6 0 -108 -266 -226 -591z"/>
<path d="M10053 1829 c-105 -29 -116 -194 -16 -235 65 -28 128 -8 163 49 62
101 -30 218 -147 186z"/>
<path d="M8437 800 c-49 -346 -86 -634 -83 -638 3 -5 36 -12 73 -16 37 -4 77
-9 89 -12 20 -5 22 7 73 373 66 467 85 527 194 617 70 57 131 80 217 80 95 1
152 -20 208 -77 48 -49 72 -109 72 -182 0 -42 -91 -730 -115 -871 l-5 -31 96
-13 c52 -6 97 -10 98 -8 1 2 31 208 65 457 72 516 74 563 26 669 -72 160 -270
254 -470 222 -96 -15 -163 -50 -228 -119 -65 -68 -64 -69 -44 71 l13 86 -73
11 c-41 6 -84 11 -96 11 -22 0 -24 -12 -110 -630z"/>
<path d="M9990 1138 c0 -91 -3 -381 -7 -645 l-6 -480 92 -7 c51 -4 95 -5 99
-1 5 5 21 1274 17 1283 -1 1 -45 5 -99 9 l-96 6 0 -165z"/>
</g>
</svg>
